<svg xmlns="http://www.w3.org/2000/svg" xmlns:xlink="http://www.w3.org/1999/xlink" id="Layer_1" x="0px" y="0px" viewBox="0 0 30 30" style="enable-background:new 0 0 30 30;" xml:space="preserve"><style type="text/css">	.st0{fill:#333333;}</style><g>	<path class="st0" d="M9.21,18.64H8.57c-0.25,0-0.46,0.2-0.46,0.46c0,0.25,0.2,0.46,0.46,0.46h0.64c0.25,0,0.46-0.21,0.46-0.46  C9.67,18.84,9.46,18.64,9.21,18.64z"></path>	<path class="st0" d="M7.6,13.76c0.73,0,1.18-0.18,1.62-0.36c0.37-0.15,0.72-0.29,1.28-0.29c0.56,0,0.91,0.14,1.28,0.29  c0.43,0.17,0.89,0.35,1.61,0.35c1.14,0,2.07-0.93,2.07-2.07s-0.93-2.07-2.07-2.07c-0.25,0-0.49,0.04-0.72,0.13  c-0.38-0.87-1.22-1.42-2.18-1.42c-0.96,0-1.8,0.55-2.18,1.42C8.09,9.67,7.85,9.63,7.6,9.63c-1.14,0-2.07,0.93-2.07,2.07  S6.46,13.76,7.6,13.76z M7.6,10.54c0.25,0,0.5,0.09,0.71,0.25c0.13,0.1,0.3,0.13,0.45,0.07c0.15-0.06,0.26-0.2,0.28-0.36  c0.11-0.72,0.72-1.25,1.45-1.25c0.72,0,1.35,0.54,1.46,1.25c0.02,0.16,0.13,0.3,0.28,0.36c0.15,0.06,0.32,0.03,0.45-0.07  c0.21-0.16,0.45-0.25,0.71-0.25c0.64,0,1.15,0.52,1.15,1.15s-0.52,1.15-1.15,1.15c-0.56,0-0.91-0.14-1.28-0.29  c-0.43-0.17-0.89-0.35-1.61-0.35c-0.73,0-1.18,0.18-1.62,0.36c-0.37,0.15-0.72,0.29-1.28,0.29c-0.64,0-1.15-0.52-1.15-1.15  S6.97,10.54,7.6,10.54z"></path>	<path class="st0" d="M6.64,23.79H4.38c-0.64,0-1.15-0.52-1.15-1.15c0-0.86,0.28-1.24,0.6-1.68c0.31-0.42,0.69-0.94,0.69-1.86v-2.57  c0-1.26,0.32-2.43,0.89-3.29c0.07-0.1,0.09-0.22,0.07-0.34c-0.02-0.12-0.09-0.22-0.2-0.29c-0.1-0.07-0.23-0.09-0.34-0.07  c-0.12,0.02-0.22,0.09-0.29,0.19c-0.67,1.01-1.04,2.35-1.04,3.79v2.57c0,0.62-0.21,0.91-0.51,1.32c-0.36,0.5-0.78,1.06-0.78,2.22  c0,1.14,0.93,2.07,2.07,2.07h2.25c0.25,0,0.46-0.21,0.46-0.46C7.09,23.99,6.89,23.79,6.64,23.79z"></path>	<path class="st0" d="M15.46,19.74v-2.57c0-0.25-0.2-0.46-0.46-0.46h-2.57c-0.81,0-1.47-0.66-1.47-1.47c0-0.25-0.2-0.46-0.46-0.46  c-0.25,0-0.46,0.2-0.46,0.46c0,0.81-0.66,1.47-1.47,1.47H5.99c-0.25,0-0.46,0.21-0.46,0.46v2.57c0,2.74,2.23,4.96,4.96,4.96  C13.23,24.7,15.46,22.48,15.46,19.74z M14.55,17.62v2.12c0,2.23-1.82,4.05-4.05,4.05s-4.05-1.82-4.05-4.05v-2.12h2.12  c0.77,0,1.48-0.37,1.93-0.99c0.45,0.61,1.17,0.99,1.93,0.99H14.55z"></path>	<path class="st0" d="M11.79,18.64c-0.25,0-0.46,0.2-0.46,0.46c0,0.25,0.2,0.46,0.46,0.46h0.64c0.25,0,0.46-0.21,0.46-0.46  c0-0.25-0.2-0.46-0.46-0.46H11.79z"></path>	<path class="st0" d="M17.9,20.42c-0.3-0.41-0.51-0.7-0.51-1.32v-2.57c0-1.44-0.37-2.79-1.04-3.79c-0.07-0.1-0.17-0.17-0.29-0.2  c-0.12-0.02-0.24,0-0.34,0.07s-0.17,0.17-0.2,0.29c-0.02,0.12,0,0.24,0.07,0.34c0.57,0.86,0.89,2.03,0.89,3.29v2.57  c0,0.92,0.38,1.44,0.69,1.86c0.32,0.44,0.6,0.82,0.6,1.68c0,0.64-0.52,1.15-1.15,1.15h-2.25c-0.25,0-0.46,0.2-0.46,0.46  c0,0.25,0.2,0.46,0.46,0.46h2.25c1.14,0,2.07-0.93,2.07-2.07C18.68,21.48,18.27,20.91,17.9,20.42L17.9,20.42z"></path>	<path class="st0" d="M18.14,14.13l0.36,0.86h4.34c2.67,0,4.85-2.17,4.85-4.85S25.51,5.3,22.83,5.3s-4.85,2.17-4.85,4.85  c0,1.12,0.38,2.19,1.08,3.05L18.14,14.13z M19,10.14c0-2.11,1.72-3.83,3.83-3.83s3.83,1.72,3.83,3.83s-1.72,3.83-3.83,3.83h-3.12  l0.41-0.41v-0.72C19.4,12.13,19,11.17,19,10.14z"></path>	<path class="st0" d="M24.01,16.76c-1.88,0-3.4,1.53-3.4,3.4c0,1.88,1.53,3.4,3.4,3.4h3.06l0.24-0.58l-0.67-0.67  c0.5-0.61,0.77-1.36,0.77-2.15C27.41,18.28,25.88,16.76,24.01,16.76z M26.26,22.88h-2.25c-1.5,0-2.73-1.22-2.73-2.73  c0-1.5,1.22-2.72,2.73-2.72c1.5,0,2.72,1.22,2.72,2.72c0,0.73-0.28,1.41-0.8,1.93v0.48L26.26,22.88z"></path></g></svg>