<svg xmlns="http://www.w3.org/2000/svg" xmlns:xlink="http://www.w3.org/1999/xlink" id="Layer_1" x="0px" y="0px" viewBox="0 0 30 30" style="enable-background:new 0 0 30 30;" xml:space="preserve"><style type="text/css">	.st0{fill:#333333;}</style><g>	<path class="st0" d="M9.54,9.49L10.05,10l-0.32,0.72l0.25,0.5c0.54,1.09,1.63,1.76,2.83,1.76c0.09,0,0.19,0,0.28-0.01l3.46-0.3  l5.85,5.85c0.28,0.29,0.28,0.75,0,1.03l-0.1,0.1c-0.28,0.28-0.76,0.28-1.03,0l-0.56-0.56l0,0l-2.61-2.61l-0.78,0.78l2.61,2.61l0,0  c0.29,0.29,0.29,0.75,0,1.04l-0.1,0.1c-0.14,0.14-0.32,0.21-0.52,0.21c0,0,0,0,0,0c-0.2,0-0.38-0.08-0.52-0.22l-0.65-0.65l0,0  l-1.96-1.96l-0.78,0.78l1.96,1.96c0.28,0.29,0.28,0.75,0,1.03l-0.1,0.1c-0.14,0.14-0.32,0.22-0.52,0.22c0,0,0,0,0,0  c-0.19,0-0.38-0.08-0.52-0.21l-0.51-0.51l0.01-0.01l-1.45-1.45l-0.78,0.78l1.31,1.31l-0.01,0.01c0.29,0.29,0.29,0.75,0,1.04  l-0.1,0.1c-0.28,0.28-0.76,0.28-1.04,0l-0.81-0.81l0.1-0.1v0c0.66-0.66,0.66-1.73,0-2.39l-0.06-0.06c-0.3-0.3-0.71-0.46-1.13-0.47  c-0.01-0.42-0.17-0.83-0.49-1.14l-0.06-0.06c-0.3-0.3-0.71-0.46-1.13-0.47c-0.01-0.41-0.17-0.83-0.49-1.14L9.55,16.8  c-0.3-0.3-0.71-0.46-1.13-0.47c-0.01-0.42-0.17-0.83-0.49-1.14l-0.06-0.06c-0.52-0.52-1.36-0.61-2-0.28  c-0.11-0.2-0.24-0.39-0.41-0.55l-0.33-0.33l-0.78,0.78l0.33,0.33c0.15,0.15,0.25,0.34,0.3,0.54l-0.3,0.3c-0.6,0.6-0.6,1.59,0,2.19  l0.6,0.6c0.14,0.14,0.3,0.23,0.48,0.27c0.05,0.17,0.12,0.33,0.26,0.47l0.94,0.94c0.14,0.14,0.3,0.23,0.48,0.27  c0.05,0.17,0.12,0.33,0.26,0.47l0.94,0.94c0.14,0.14,0.31,0.21,0.48,0.26c0.05,0.18,0.12,0.34,0.26,0.48l0.6,0.6  c0.3,0.3,0.7,0.45,1.1,0.45c0.36,0,0.71-0.13,1-0.38l0.82,0.82c0.35,0.35,0.8,0.54,1.29,0.54c0.49,0,0.95-0.19,1.29-0.54l0.1-0.1  c0.22-0.22,0.38-0.49,0.46-0.77c0.22,0.09,0.46,0.14,0.71,0.14c0,0,0,0,0,0c0.49,0,0.95-0.19,1.29-0.54l0.1-0.1  c0.22-0.22,0.38-0.49,0.46-0.77c0.66,0.28,1.46,0.15,2-0.39l0.1-0.1c0.23-0.23,0.39-0.52,0.47-0.82c0.64,0.22,1.41,0.06,1.9-0.43  l0.1-0.1c0.69-0.69,0.7-1.78,0.07-2.5c0.46-0.35,0.87-0.76,1.23-1.23c0.39-0.51,0.78-1.33,1.02-1.98l0.17,0.17h0.78l2.78-2.78  v-0.78l-6.05-6.05H22.4l-2.78,2.78v0.78l0.34,0.34l-0.51,0.21c-0.32,0.12-0.68,0.12-1-0.01l-1.05-0.41c-1-0.39-2.11-0.44-3.13-0.14  l-3.05,0.89l-0.91-0.91L9.54,9.49z M5.47,16.69l0.79-0.79c0.11-0.11,0.26-0.17,0.42-0.17c0.16,0,0.31,0.06,0.42,0.17l0.06,0.06  c0.23,0.23,0.23,0.61,0,0.84l-1.11,1.11l-0.58-0.58C5.29,17.15,5.29,16.86,5.47,16.69z M6.81,18.7l1.12-1.12  c0.12-0.12,0.27-0.17,0.42-0.17s0.3,0.06,0.42,0.17l0.06,0.06c0.23,0.23,0.23,0.61,0,0.84l-1.11,1.11L6.81,18.7z M8.49,20.38  l1.12-1.12c0.12-0.12,0.27-0.17,0.42-0.17c0.15,0,0.31,0.06,0.42,0.17l0.06,0.06c0.23,0.23,0.23,0.61,0,0.84c0,0,0,0,0,0  l-1.11,1.11L8.49,20.38z M10.76,22.62l-0.6-0.57l1.12-1.12v0c0.11-0.11,0.26-0.17,0.42-0.17c0.16,0,0.31,0.06,0.42,0.17l0.06,0.06  c0.23,0.23,0.23,0.61,0,0.84l-0.79,0.79C11.23,22.8,10.94,22.8,10.76,22.62z M22.79,6.35l5.27,5.27l-2.01,2.01l-5.27-5.27  L22.79,6.35z M14.57,9.78c0.79-0.23,1.65-0.19,2.42,0.11l1.05,0.41c0.57,0.23,1.21,0.23,1.79,0.01l1.01-0.35l3.79,3.79  c-0.25,1.02-0.7,1.75-1.03,2.18c-0.32,0.42-0.72,0.78-1.14,1.09l-5.3-5.3c-0.09-0.11-0.22-0.18-0.37-0.18  c-0.03,0-0.05,0.01-0.08,0.02l0-0.01l-3.72,0.32c-0.82,0.07-1.59-0.34-1.98-1.05L14.57,9.78z"></path>	<path class="st0" d="M4.34,14.77l6.05-6.05V7.95L7.6,5.17H6.83l-6.05,6.05v0.78l2.78,2.78H4.34z M7.21,6.33l2.01,2.01l-5.27,5.27  L1.94,11.6L7.21,6.33z"></path></g></svg>