<?xml version="1.0" encoding="utf-8"?>
<!-- Generator: Adobe Illustrator 26.0.2, SVG Export Plug-In . SVG Version: 6.00 Build 0)  -->
<svg version="1.1" id="Layer_1" xmlns="http://www.w3.org/2000/svg" xmlns:xlink="http://www.w3.org/1999/xlink" x="0px" y="0px"
	 viewBox="0 0 174.88 51.19" style="enable-background:new 0 0 174.88 51.19;" xml:space="preserve">
<style type="text/css">
	.st0{fill:#A97FB7;}
	.st1{fill:#1D1D1B;}
	.st2{fill:#1D1D1B;stroke:#1D1D1B;stroke-width:2;stroke-miterlimit:10;}
	.st3{fill:none;stroke:#A97FB7;stroke-width:2;stroke-miterlimit:10;}
</style>
<path class="st0" d="M12.08,43.07c-0.1,0.65-0.59,0.98-1.44,0.98h-0.22c-0.84,0-1.32-0.33-1.44-0.98L3.09,11.03
	c-0.02-0.12-0.1-0.18-0.25-0.18c-0.15,0.02-0.22,0.08-0.22,0.2v32.07c0,0.62-0.39,0.93-1.16,0.93H1.4c-0.77,0-1.16-0.3-1.16-0.9
	V9.55c0-0.37,0.16-0.68,0.47-0.93C1.05,8.37,1.44,8.25,1.9,8.25h1.16c0.96,0,1.51,0.38,1.66,1.13l5.79,30.82h0.06L16.34,9.5
	c0.17-0.83,0.78-1.25,1.85-1.25h0.72c0.52,0,0.97,0.15,1.35,0.45c0.4,0.3,0.6,0.66,0.6,1.08V43.2c0,0.57-0.37,0.85-1.1,0.85h-0.03
	c-0.36,0-0.66-0.1-0.91-0.3c-0.23-0.18-0.34-0.41-0.34-0.68V11c0-0.12-0.07-0.18-0.22-0.18c-0.15-0.02-0.23,0.03-0.25,0.15
	L12.08,43.07z"/>
<path class="st0" d="M36.73,43.28c0.04,0.27-0.04,0.51-0.25,0.73c-0.21,0.22-0.49,0.34-0.85,0.38c-0.36,0.03-0.66-0.03-0.91-0.2
	c-0.27-0.17-0.43-0.38-0.47-0.65l-0.72-4.66c-0.04-0.22-0.2-0.33-0.47-0.33H27.3c-0.27,0-0.42,0.11-0.44,0.33l-0.72,4.66
	c-0.04,0.27-0.2,0.48-0.47,0.65c-0.27,0.17-0.57,0.23-0.91,0.2h-0.03c-0.33-0.03-0.61-0.16-0.81-0.38
	c-0.21-0.22-0.29-0.46-0.25-0.73l5.29-34.4c0,0.08,0.01,0.07,0.03-0.03c0.02-0.08,0.05-0.18,0.09-0.28c0.04-0.05,0.06-0.08,0.06-0.1
	c0.04-0.05,0.11-0.11,0.22-0.18c0.06-0.05,0.1-0.08,0.13-0.1c0.04-0.02,0.11-0.04,0.22-0.08c0.08-0.03,0.16-0.06,0.22-0.07
	c0.02,0,0.04,0,0.06,0c0-0.02,0.01-0.03,0.03-0.03h0.03C30,8.04,30.04,8.05,30.18,8.05c0.17,0,0.22-0.01,0.16-0.03h0.03l0.03,0.03
	h0.03c0.06,0.02,0.15,0.04,0.25,0.07c0.08,0.03,0.16,0.06,0.22,0.08c0.02,0.02,0.06,0.05,0.13,0.1c0.08,0.07,0.15,0.13,0.19,0.18
	c0.02,0.02,0.04,0.05,0.06,0.1c0.06,0.1,0.1,0.19,0.13,0.28c0.02,0.08,0.02,0.09,0,0.03L36.73,43.28z M27.27,36.11
	c-0.04,0.27,0.11,0.4,0.47,0.4h4.89c0.38,0,0.53-0.13,0.47-0.4l-2.91-18.94L27.27,36.11z"/>
<path class="st0" d="M40.46,8.17c0.33,0,0.63,0.1,0.88,0.3c0.23,0.18,0.34,0.41,0.34,0.68V43.1c0,0.27-0.12,0.49-0.34,0.68
	c-0.25,0.2-0.54,0.3-0.88,0.3h-0.03c-0.33,0-0.63-0.1-0.88-0.3c-0.23-0.18-0.34-0.41-0.34-0.68V9.15c0-0.27,0.11-0.49,0.34-0.68
	c0.25-0.2,0.54-0.3,0.88-0.3H40.46z"/>
<path class="st0" d="M53.66,8.4c1.61,0,2.99,0.42,4.13,1.25s1.72,1.84,1.72,3.01v27.06c0,1.19-0.57,2.19-1.72,3.01
	c-1.15,0.83-2.53,1.25-4.13,1.25h-6.53c-0.52,0-0.97-0.14-1.35-0.43c-0.38-0.28-0.56-0.63-0.56-1.03V9.88
	c0-0.42,0.19-0.77,0.56-1.05c0.38-0.28,0.83-0.43,1.35-0.43h0.63H53.66z M56.91,13.25c0-0.68-0.32-1.27-0.97-1.75
	c-0.63-0.48-1.43-0.5-2.32-0.73c-1.26-0.32-5.87-0.57-5.87-0.57v32h1.35c1.44,0,3.78-0.48,4.04-0.56c1.82-0.54,2.21-0.68,2.83-1.16
	c0.65-0.48,0.97-1.07,0.97-1.75L56.91,13.25z"/>
<path class="st1" d="M107.4,8.4c1.61,0,2.99,0.42,4.13,1.25c1.15,0.84,1.72,1.84,1.72,3.01v27.06c0,1.19-0.57,2.19-1.72,3.01
	c-1.15,0.83-2.53,1.25-4.13,1.25h-6.53c-0.52,0-0.97-0.14-1.35-0.43c-0.38-0.28-0.56-0.63-0.56-1.03V9.88
	c0-0.42,0.19-0.77,0.56-1.05c0.38-0.28,0.83-0.43,1.35-0.43h0.63H107.4z M110.66,13.25c0-0.68-0.32-1.27-0.97-1.75
	c-0.63-0.48-1.43-0.5-2.32-0.73c-1.26-0.32-5.87-0.57-5.87-0.57v32h1.35c1.44,0,3.78-0.48,4.04-0.56c1.82-0.54,2.21-0.68,2.83-1.16
	c0.65-0.48,0.97-1.07,0.97-1.75L110.66,13.25z"/>
<path class="st1" d="M65.39,10.28c-0.65,0-0.97,0.25-0.97,0.75V21.9c0,0.5,0.32,0.75,0.97,0.75h4.95c0.63,0,0.94,0.25,0.94,0.75
	v0.03c0,0.5-0.31,0.75-0.94,0.75h-4.95c-0.65,0-0.97,0.25-0.97,0.75v18.54c0,0.5-0.32,0.75-0.97,0.75h-0.5
	c-0.65,0-0.97-0.25-0.97-0.75V9.05c0-0.5,0.32-0.75,0.97-0.75h7.39c0.63,0,0.94,0.25,0.94,0.75v0.48c0,0.5-0.31,0.75-0.94,0.75
	H65.39z"/>
<path class="st1" d="M76.38,8.17c0.33,0,0.63,0.1,0.88,0.3c0.23,0.18,0.34,0.41,0.34,0.68V43.1c0,0.27-0.12,0.49-0.34,0.68
	c-0.25,0.2-0.54,0.3-0.88,0.3h-0.03c-0.33,0-0.63-0.1-0.88-0.3c-0.23-0.18-0.34-0.41-0.34-0.68V9.15c0-0.27,0.11-0.49,0.34-0.68
	c0.25-0.2,0.54-0.3,0.88-0.3H76.38z"/>
<path class="st1" d="M83.46,8.25c1.11,0,1.76,0.43,1.97,1.3l7.8,32.4V9.13c0-0.58,0.38-0.88,1.13-0.88h0.31
	c0.65,0,0.97,0.26,0.97,0.78v33.32c0,0.52-0.23,0.96-0.69,1.33c-0.48,0.37-1.06,0.55-1.72,0.55H93.2c-0.98,0-1.57-0.38-1.75-1.13
	L83.24,9.6v33.7c0,0.62-0.4,0.93-1.19,0.93h-0.03c-0.75,0-1.13-0.29-1.13-0.88V9.58c0-0.37,0.17-0.68,0.5-0.93
	c0.31-0.27,0.7-0.4,1.16-0.4H83.46z"/>
<path class="st1" d="M119.23,23.96c-0.63,0-0.94,0.25-0.94,0.75v16.71c0,0.49,0.31,0.73,0.94,0.73h4.98c0.63,0,0.94,0.25,0.94,0.75
	v0.53c0,0.49-0.31,0.73-0.94,0.73h-7.42c-0.63,0-0.94-0.24-0.94-0.73V9c0-0.5,0.31-0.75,0.94-0.75h7.42c0.63,0,0.94,0.25,0.94,0.75
	v0.48c0,0.5-0.31,0.75-0.94,0.75h-4.98c-0.63,0-0.94,0.24-0.94,0.73v10.77c0,0.48,0.31,0.73,0.94,0.73h4.98
	c0.63,0,0.94,0.25,0.94,0.75v0.03c0,0.48-0.31,0.73-0.94,0.73H119.23z"/>
<path class="st1" d="M136.86,23.88l4.23,19.24c0.06,0.3-0.03,0.56-0.28,0.78c-0.23,0.22-0.52,0.33-0.88,0.33h-0.03
	c-0.65,0-1.03-0.26-1.16-0.78l-3.7-16.96c-0.06-0.32-0.28-0.54-0.66-0.68c-0.36-0.13-0.71-0.13-1.06,0.02l-0.22,0.08
	c-0.33,0.15-0.62,0.27-0.85,0.35l-0.75,0.3V43.3c0,0.62-0.39,0.93-1.16,0.93h-0.13c-0.77,0-1.16-0.31-1.16-0.93V9.25
	c0-0.62,0.39-0.93,1.16-0.93h2.63c2.21,0,3.8,0.22,4.76,0.65c1.38,0.62,2.24,1.83,2.6,3.63c0,0.07,0,0.13,0,0.17v7.39
	c0,0.84-0.94,1.94-2.82,3.31L136.86,23.88z M133.57,23.56c2.78-1.44,4.16-2.56,4.16-3.38v-7.54v-0.13
	c-0.21-1.47-1.82-2.27-4.82-2.41l-1.41-0.05v14.08c0,0.12,0.06,0.2,0.19,0.25c0.13,0.05,0.24,0.04,0.34-0.03L133.57,23.56z"/>
<path class="st2" d="M143.97,39.51c0-0.27,0.11-0.49,0.34-0.68c0.25-0.2,0.54-0.3,0.88-0.3h0.03c0.33,0,0.63,0.1,0.88,0.3
	c0.23,0.18,0.34,0.41,0.34,0.68v1.7c0,0.27-0.11,0.49-0.34,0.68c-0.25,0.2-0.54,0.3-0.88,0.3h-0.03c-0.33,0-0.63-0.1-0.88-0.3
	c-0.23-0.18-0.34-0.41-0.34-0.68V39.51z"/>
<path class="st1" d="M162.66,42.09c0.04,0.27-0.04,0.51-0.25,0.73c-0.21,0.22-0.49,0.34-0.85,0.38c-0.36,0.03-0.66-0.03-0.91-0.2
	c-0.27-0.17-0.43-0.38-0.47-0.65l-0.72-4.66c-0.04-0.22-0.2-0.33-0.47-0.33h-5.76c-0.27,0-0.42,0.11-0.44,0.33l-0.72,4.66
	c-0.04,0.27-0.2,0.48-0.47,0.65c-0.27,0.17-0.57,0.23-0.91,0.2h-0.03c-0.33-0.03-0.61-0.16-0.81-0.38
	c-0.21-0.22-0.29-0.46-0.25-0.73l5.29-34.4c0,0.08,0.01,0.07,0.03-0.03c0.02-0.08,0.05-0.18,0.09-0.28c0.04-0.05,0.06-0.08,0.06-0.1
	c0.04-0.05,0.11-0.11,0.22-0.18c0.06-0.05,0.1-0.08,0.13-0.1c0.04-0.02,0.11-0.04,0.22-0.08c0.08-0.03,0.16-0.06,0.22-0.07
	c0.02,0,0.04,0,0.06,0c0-0.02,0.01-0.03,0.03-0.03h0.03c-0.06,0.02-0.02,0.03,0.13,0.03c0.17,0,0.22-0.01,0.16-0.03h0.03l0.03,0.03
	h0.03c0.06,0.02,0.15,0.04,0.25,0.07c0.08,0.03,0.16,0.06,0.22,0.08c0.02,0.02,0.06,0.05,0.13,0.1c0.08,0.07,0.15,0.13,0.19,0.18
	c0.02,0.02,0.04,0.05,0.06,0.1c0.06,0.1,0.1,0.19,0.13,0.28c0.02,0.08,0.02,0.09,0,0.03L162.66,42.09z M153.21,34.92
	c-0.04,0.27,0.11,0.4,0.47,0.4h4.89c0.38,0,0.53-0.13,0.47-0.4l-2.91-18.94L153.21,34.92z"/>
<path class="st1" d="M168.93,23.96c-0.63,0-0.94,0.25-0.94,0.75v16.71c0,0.49,0.31,0.73,0.94,0.73h4.98c0.63,0,0.94,0.25,0.94,0.75
	v0.53c0,0.49-0.31,0.73-0.94,0.73h-7.42c-0.63,0-0.94-0.24-0.94-0.73V9c0-0.5,0.31-0.75,0.94-0.75h7.42c0.63,0,0.94,0.25,0.94,0.75
	v0.48c0,0.5-0.31,0.75-0.94,0.75h-4.98c-0.63,0-0.94,0.24-0.94,0.73v10.77c0,0.48,0.31,0.73,0.94,0.73h4.98
	c0.63,0,0.94,0.25,0.94,0.75v0.03c0,0.48-0.31,0.73-0.94,0.73H168.93z"/>
<line class="st3" x1="0.38" y1="49.79" x2="174.87" y2="49.79"/>
<line class="st3" x1="0.33" y1="1.62" x2="174.81" y2="1.62"/>
</svg>
