<?xml version="1.0" encoding="utf-8"?>
<!-- Generator: Adobe Illustrator 26.0.2, SVG Export Plug-In . SVG Version: 6.00 Build 0)  -->
<svg version="1.1" id="Layer_1" xmlns="http://www.w3.org/2000/svg" xmlns:xlink="http://www.w3.org/1999/xlink" x="0px" y="0px"
	 viewBox="0 0 30 30" style="enable-background:new 0 0 30 30;" xml:space="preserve">
<style type="text/css">
	.st0{fill:#333333;}
</style>
<g>
	<g>
		<path class="st0" d="M20.49,26.12H9.51c-1.34,0-2.42-1.09-2.42-2.42v-6.4l0.59-0.59h14.64l0.59,0.59v6.4
			C22.91,25.03,21.83,26.12,20.49,26.12z M8.27,17.88v5.81c0,0.68,0.55,1.24,1.24,1.24h10.98c0.68,0,1.24-0.55,1.24-1.24v-5.81H8.27
			z"/>
	</g>
	<g>
		<path class="st0" d="M23.24,21.54h-0.92l-0.59-0.59v-3.07H8.27v3.07l-0.59,0.59H6.77c-1.84,0-3.34-1.5-3.34-3.34v-6.4
			c0-1.84,1.5-3.34,3.34-3.34h16.47c1.84,0,3.34,1.5,3.34,3.34v6.4C26.57,20.04,25.08,21.54,23.24,21.54z M22.91,20.35h0.32
			c1.19,0,2.15-0.96,2.15-2.15v-6.4c0-1.19-0.96-2.15-2.15-2.15H6.77c-1.19,0-2.15,0.96-2.15,2.15v6.4c0,1.19,0.97,2.15,2.15,2.15
			h0.32v-3.07l0.59-0.59h14.64l0.59,0.59V20.35z"/>
	</g>
	<g>
		<g>
			<polygon class="st0" points="23.24,17.9 6.77,17.9 6.15,17.29 6.77,16.67 23.24,16.67 23.85,17.29 			"/>
		</g>
		<g>
			<polygon class="st0" points="19.58,20.65 10.42,20.65 9.81,20.03 10.42,19.42 19.58,19.42 20.19,20.03 			"/>
		</g>
		<g>
			<polygon class="st0" points="19.58,23.39 10.42,23.39 9.81,22.78 10.42,22.16 19.58,22.16 20.19,22.78 			"/>
		</g>
	</g>
	<g>
		<path class="st0" d="M22.32,9.65H7.68L7.09,9.05V6.31c0-1.34,1.09-2.42,2.42-2.42h10.98c1.34,0,2.42,1.09,2.42,2.42v2.75
			L22.32,9.65z M8.27,8.46h13.45V6.31c0-0.68-0.55-1.24-1.24-1.24H9.51c-0.68,0-1.24,0.55-1.24,1.24V8.46z"/>
	</g>
	<g>
		<path class="st0" d="M22.09,12.85c-0.45,0-0.82-0.37-0.82-0.82s0.37-0.82,0.82-0.82s0.82,0.37,0.82,0.82S22.55,12.85,22.09,12.85z
			 M22.09,11.66c-0.2,0-0.37,0.16-0.37,0.37s0.16,0.37,0.37,0.37s0.37-0.16,0.37-0.37S22.29,11.66,22.09,11.66z"/>
	</g>
</g>
</svg>
